<svg xmlns="http://www.w3.org/2000/svg" width="1200" height="630" viewBox="0 0 1200 630">
  <rect width="1200" height="630" fill="#2C5F7C"/>
  <!-- Pattern background -->
  <rect width="1200" height="630" fill="url(#pattern)" opacity="0.06"/>
  <defs>
    <pattern id="pattern" x="0" y="0" width="60" height="60" patternUnits="userSpaceOnUse">
      <path d="M36 34v-4h-2v4h-4v2h4v4h2v-4h4v-2h-4zm0-30V0h-2v4h-4v2h4v4h2V6h4V4h-4zM6 34v-4H4v4H0v2h4v4h2v-4h4v-2H6zM6 4V0H4v4H0v2h4v4h2V6h4V4H6z" fill="white"/>
    </pattern>
  </defs>
  <!-- Accent bar -->
  <rect x="0" y="0" width="12" height="630" fill="#e8922a"/>
  <!-- Logo block -->
  <rect x="80" y="200" width="100" height="100" rx="20" fill="#e8922a"/>
  <text x="130" y="270" font-family="Georgia, serif" font-size="64" font-weight="bold" text-anchor="middle" fill="white">D</text>
  <!-- School name -->
  <text x="80" y="360" font-family="Georgia, serif" font-size="52" font-weight="bold" fill="white">Damimah Junior School</text>
  <!-- Tagline -->
  <text x="80" y="420" font-family="Arial, sans-serif" font-size="28" fill="#f5b060">Nurturing Young Minds · Grades 1–3</text>
  <!-- Bottom strip -->
  <rect x="0" y="570" width="1200" height="60" fill="#1e4457"/>
  <text x="80" y="605" font-family="Arial, sans-serif" font-size="20" fill="rgba(255,255,255,0.7)">damimahjs.org</text>
</svg>
